# xmcd
#
# Track frame offsets: 
#        150
#        963
#        10261
#        19694
#        27709
#        35983
#        43375
#        50986
#        58396
#        65917
#        72010
#        79569
#        85903
#        92554
#        100180
#        108349
#        108896
#        117493
#        125304
#        133840
#        140074
#        147482
#        155217
#        162572
#        169870
#        177579
#        186092
#        192481
#        200016
#        207960
#        216590
#        246905
#        263046
#        279445
#        295351
#
# Disc length: 4252 seconds
#
# Revision: 0
# Processed by: cddbd v1.5.2PL0 Copyright (c) Steve Scherf et al.
# Submitted via: ExactAudioCopy v0.99pb5
#
DISCID=30109a23
DTITLE=Various Artist - Royal Deutsch Vol.04
DYEAR=1900
DGENRE=Acid Jazz
TTITLE0=Intro
TTITLE1=Marco Kloss - Arschkarte
TTITLE2=Olaf Henning - Labyrinth
TTITLE3=Frank Lars - Sowas von egal
TTITLE4=Peter Wackel - Keiner baggert so wie Heiner
TTITLE5=Dennie Christian - Alles inclusive
TTITLE6=Tim Capri - Laß mich doch nochmal
TTITLE7=Sandro de Ville - Ich warte auf dich
TTITLE8=Micky Krause - Zeig doch mal die Möpse
TTITLE9=Bianca Graf - Zwischen Himmel und Hölle
TTITLE10=Peter Steinbach - Verdammt
TTITLE11=Tobi - Total verknallt
TTITLE12=Mike Bauhaus - Ich vermisse Dich
TTITLE13=Monique - Bis ans Ende der Welt
TTITLE14=Marco Kloss - Wir sind hier nicht beim Karneval
TTITLE15=Royal Deutsch Break
TTITLE16=Nadine Norell - Heissev Hände
TTITLE17=George Le Bonsai - 003 Einhalb
TTITLE18=Sound Convoy - Hey Baby
TTITLE19=DJ Ötzi - Anton aus Tirol
TTITLE20=Bert Silver - Absoluter Wahnsinn
TTITLE21=Matthias Karntner - Irgendwo in Paris
TTITLE22=Leo König - Hinter den Bergen
TTITLE23=Scheunenrocker - Mädchen aus Gold
TTITLE24=Kerstin Merlin - Ich bin enttäuscht
TTITLE25=Olaf Henning - Echt Klasse
TTITLE26=Mike Fender - Verliebt verloren in Amarillo
TTITLE27=Tommie Fischer - Süchtig nach dir
TTITLE28=Oliver Frank - Alles ist wahr
TTITLE29=Matthias Karntner - Was wollen wir trinken
TTITLE30=Lollies - Megamix
TTITLE31=Chris Wolf - Palma de Mallorcxa 2000
TTITLE32=Micky Krause - Zeig doch mal die Möpse
TTITLE33=Geier Sturzflug - Pure Lust am Leben 2000
TTITLE34=DJ Ötzi - Aha Aha
EXTD=
EXTT0=
EXTT1=
EXTT2=
EXTT3=
EXTT4=
EXTT5=
EXTT6=
EXTT7=
EXTT8=
EXTT9=
EXTT10=
EXTT11=
EXTT12=
EXTT13=
EXTT14=
EXTT15=
EXTT16=
EXTT17=
EXTT18=
EXTT19=
EXTT20=
EXTT21=
EXTT22=
EXTT23=
EXTT24=
EXTT25=
EXTT26=
EXTT27=
EXTT28=
EXTT29=
EXTT30=
EXTT31=
EXTT32=
EXTT33=
EXTT34=
PLAYORDER=
